<?xml version="1.0" encoding="UTF-8" standalone="no"?>
<svg
   xmlns:dc="http://purl.org/dc/elements/1.1/"
   xmlns:cc="http://creativecommons.org/ns#"
   xmlns:rdf="http://www.w3.org/1999/02/22-rdf-syntax-ns#"
   xmlns:svg="http://www.w3.org/2000/svg"
   xmlns="http://www.w3.org/2000/svg"
   id="svg8153"
   version="1.1"
   viewBox="0 0 189.99999 145"
   height="145mm"
   width="190mm">
  <defs
     id="defs8147" />
  <metadata
     id="metadata8150">
    <rdf:RDF>
      <cc:Work
         rdf:about="">
        <dc:format>image/svg+xml</dc:format>
        <dc:type
           rdf:resource="http://purl.org/dc/dcmitype/StillImage" />
        <dc:title></dc:title>
      </cc:Work>
    </rdf:RDF>
  </metadata>
  <g
     transform="translate(309.40824,133.3986)"
     id="layer1">
    <g
       id="layer1-1"
       transform="matrix(0.26458333,0,0,0.26458333,-99.974703,-185.54464)">
      <g
         transform="translate(20,-10)"
         id="g8851">
        <g
           transform="matrix(1.872147,0,0,1.9497566,-1078.4991,-748.41979)"
           id="layer1-6">
          <path
             d="m 435.07,552.78 c -9.2157,0 -11.989,8.0025 -11.989,11.686 v 1.1208 l -0.0471,61.605 -14.136,53.75 h 14.136 l 0.18497,72.645 c 0,16.687 24.529,16.558 24.529,-0.3583 l 0.0551,-72.287 h 4.6578 l 0.0551,72.287 c 0,16.917 24.529,17.045 24.529,0.3583 l 0.0766,-72.645 h 14.554 l -14.076,-53.75 -0.41731,-61.293 v -1.4326 c 0,-3.6832 -2.7731,-11.686 -11.989,-11.686 h -5.7602 c -0.14,0.99996 -3.2797,3.9136 -3.2797,3.9136 l -1.5434,32.257 -1.9844,-28.398 1.378,-3.638 c -1.1836,-1.024 -2.8455,-2.4852 -3.886,-3.3624 -1.0849,0.87817 -2.6508,2.3175 -3.8585,3.3624 l 1.3781,3.638 -1.9844,28.398 -1.5434,-32.257 c 0,0 -3.1397,-2.9136 -3.2797,-3.9136 z"
             style="fill:#008000;fill-opacity:1"
             id="path5112" />
          <path
             d="m 363.48,593.09 c -13.712,0 -12.91,19.461 -0.22471,19.461 h 40.087 c 12.685,0 13.487,-19.461 -0.2248,-19.461 h -39.637 z"
             style="fill:#008000;fill-opacity:1"
             id="path5114" />
          <path
             d="m 395.41,597.27 c -7.8789,11.222 8.509,21.748 15.798,11.366 5.3916,-7.6792 12.067,-17.186 18.038,-25.691 12.882,-19.015 17.252,-22.07 8.5326,-27.203 -4.3694,-2.2796 -8.194,-7.147 -19.592,9.0878 -6.8783,9.7967 -15.898,22.643 -22.776,32.44 z"
             style="fill:#008000;fill-opacity:1"
             id="path5116" />
          <path
             style="fill:#008000;fill-opacity:1"
             d="m 514.3,639.54 c 3.3468,13.297 -15.721,17.27 -18.817,4.9679 l -9.7843,-38.874 c -3.0962,-12.302 15.58,-17.829 18.927,-4.532 2.9217,11.608 6.753,26.83 9.6746,38.439 z"
             id="path5118" />
          <path
             d="m 503.41,597.27 c 7.879,11.222 -8.509,21.748 -15.798,11.366 -5.3916,-7.6792 -12.067,-17.186 -18.038,-25.691 -12.882,-19.015 -17.252,-22.07 -8.5326,-27.203 4.3694,-2.2796 8.194,-7.147 19.592,9.0878 6.8783,9.7967 15.898,22.643 22.776,32.44 z"
             style="fill:#008000;fill-opacity:1"
             id="path5120" />
          <path
             d="m 304.48001,593.09 c 13.712,0 12.91,19.461 0.22471,19.461 h -40.087 c -12.685,0 -13.487,-19.461 0.22474,-19.461 h 39.637 z"
             style="fill:#008000;fill-opacity:1"
             id="path4653" />
          <path
             d="m 272.55001,597.27 c 7.879,11.222 -8.509,21.748 -15.798,11.366 -5.3916,-7.6792 -12.067,-17.186 -18.038,-25.691 -12.882,-19.015 -17.252,-22.07 -8.5326,-27.203 4.3694,-2.2796 8.194,-7.147 19.592,9.0878 6.8783,9.7967 15.898,22.643 22.776,32.44 z"
             style="fill:#008000;fill-opacity:1"
             id="path4655" />
          <path
             d="m 233.14001,552.78 c 9.2157,0 11.989,8.0025 11.989,11.686 v 22.324 l -0.13785,166.8 c 0,16.687 -24.529,16.558 -24.529,-0.3583 l -0.0551,-97.041 h -4.6577 l -0.0551,97.041 c 0,16.917 -24.529,17.045 -24.529,0.3583 l -0.13779,-166.8 v -22.324 c 0,-3.6832 2.7732,-11.686 11.989,-11.686 h 5.7602 c 0.13997,0.99996 3.2797,3.9136 3.2797,3.9136 l 1.5434,32.257 1.9843,-28.398 -1.378,-3.638 c 1.1836,-1.024 2.8455,-2.4852 3.886,-3.3624 1.0849,0.87817 2.6508,2.3175 3.8585,3.3624 l -1.378,3.638 1.9843,28.398 1.5434,-32.257 c 0,0 3.1397,-2.9136 3.2797,-3.9136 z"
             style="fill:#008000;fill-opacity:1"
             id="path4657" />
          <path
             d="m 153.66001,639.54 c -3.3468,13.297 15.721,17.27 18.817,4.9679 2.9583,-11.753 6.8261,-27.121 9.7843,-38.874 3.0963,-12.302 -15.581,-17.829 -18.927,-4.532 -2.9216,11.608 -6.7529,26.83 -9.6746,38.439 z"
             style="fill:#008000;fill-opacity:1"
             id="path4999" />
          <path
             d="m 164.55001,597.27 c -7.879,11.222 8.509,21.748 15.798,11.366 5.3916,-7.6792 12.067,-17.186 18.038,-25.691 12.882,-19.015 17.252,-22.07 8.5326,-27.203 -4.3693,-2.2796 -8.194,-7.147 -19.592,9.0878 -6.8783,9.7967 -15.898,22.643 -22.776,32.44 z"
             style="fill:#008000;fill-opacity:1"
             id="path5001" />
          <path
             d="m 230.95001,500.5 c 0,0 1.4246,4.6876 -0.6875,8.4375 5.8124,3.8729 9.6562,10.492 9.6562,18 0,11.934 -9.6594,21.594 -21.594,21.594 -11.933,0 -21.625,-9.6593 -21.625,-21.594 0,-11.913 9.6584,-21.592 21.562,-21.625 0.0201,-0.002 0.0425,0.002 0.0625,0 12.174,-1.488 12.625,-4.8125 12.625,-4.8125 z"
             style="fill:#008000;fill-opacity:1"
             id="path5122" />
          <path
             d="M 356.16,526.92"
             style="fill:#008000;fill-opacity:1"
             id="path5145" />
          <path
             d="m 449.64,505.32 c -11.934,0 -21.608,9.674 -21.608,21.608 0,0.57831 0.0378,1.1419 0.0827,1.7088 -0.56013,13.998 -4.2167,14.69 -4.2167,14.69 0,0 5.8748,1.3931 9.536,-2.1222 3.9594,4.4931 9.7458,7.3311 16.206,7.3311 6.4448,0 12.219,-2.8274 16.178,-7.3036 3.6616,3.5091 9.5636,2.0946 9.5636,2.0946 0,0 -3.6566,-0.69143 -4.2168,-14.69 0.0445,-0.56686 0.0826,-1.1304 0.0826,-1.7088 0,-11.934 -9.6749,-21.608 -21.608,-21.608 z"
             style="fill:#008000;fill-opacity:1"
             id="path5141" />
        </g>
        <path
           style="fill:#008000;fill-opacity:1;stroke:none;stroke-width:1.91055775px;stroke-linecap:butt;stroke-linejoin:miter;stroke-opacity:1"
           d="m -397.16729,396.38703 -25.22351,34.47825 -16.55293,-18.06003 25.22351,-32.83644 z"
           id="path8831" />
        <path
           id="path8833"
           d="m -509.79028,399.49496 25.22351,34.47825 16.55293,-18.06003 -25.22352,-32.83644 z"
           style="fill:#008000;fill-opacity:1;stroke:none;stroke-width:1.91055775px;stroke-linecap:butt;stroke-linejoin:miter;stroke-opacity:1" />
      </g>
    </g>
  </g>
</svg>
